<svg width="309" height="502" viewBox="0 0 309 502" fill="none" xmlns="http://www.w3.org/2000/svg">
<g filter="url(#filter0_f_12_12)">
<path d="M64.8962 90.1395C62.1047 81.8989 66.4098 72.9381 74.5875 69.9676L87.2104 65.3823C95.3361 62.4306 104.337 66.4675 107.537 74.4987L243.524 415.807C247.71 426.313 239.97 437.729 228.66 437.729H194.113C187.255 437.729 181.16 433.358 178.959 426.862L64.8962 90.1395Z" fill="#F62C2A"/>
</g>
<g filter="url(#filter1_f_12_12)">
<ellipse cx="81.2826" cy="63.2846" rx="29.2846" ry="29.2846" fill="#F62C2A" fill-opacity="0.3"/>
</g>
<g filter="url(#filter2_f_12_12)">
<ellipse cx="80.5505" cy="64.0168" rx="10.9817" ry="10.9817" fill="#FCFCFC"/>
</g>
<g filter="url(#filter3_f_12_12)">
<path d="M80.4789 71.2664L85.6037 69.0701L225.438 439.52H213.724L80.4789 71.2664Z" fill="#FCFCFC"/>
</g>
<defs>
<filter id="filter0_f_12_12" x="0.0462952" y="0.416992" width="308.629" height="501.312" filterUnits="userSpaceOnUse" color-interpolation-filters="sRGB">
<feFlood flood-opacity="0" result="BackgroundImageFix"/>
<feBlend mode="normal" in="SourceGraphic" in2="BackgroundImageFix" result="shape"/>
<feGaussianBlur stdDeviation="32" result="effect1_foregroundBlur_12_12"/>
</filter>
<filter id="filter1_f_12_12" x="19.998" y="2" width="122.569" height="122.569" filterUnits="userSpaceOnUse" color-interpolation-filters="sRGB">
<feFlood flood-opacity="0" result="BackgroundImageFix"/>
<feBlend mode="normal" in="SourceGraphic" in2="BackgroundImageFix" result="shape"/>
<feGaussianBlur stdDeviation="16" result="effect1_foregroundBlur_12_12"/>
</filter>
<filter id="filter2_f_12_12" x="63.5688" y="47.035" width="33.9634" height="33.9635" filterUnits="userSpaceOnUse" color-interpolation-filters="sRGB">
<feFlood flood-opacity="0" result="BackgroundImageFix"/>
<feBlend mode="normal" in="SourceGraphic" in2="BackgroundImageFix" result="shape"/>
<feGaussianBlur stdDeviation="3" result="effect1_foregroundBlur_12_12"/>
</filter>
<filter id="filter3_f_12_12" x="76.4789" y="65.0701" width="152.959" height="378.45" filterUnits="userSpaceOnUse" color-interpolation-filters="sRGB">
<feFlood flood-opacity="0" result="BackgroundImageFix"/>
<feBlend mode="normal" in="SourceGraphic" in2="BackgroundImageFix" result="shape"/>
<feGaussianBlur stdDeviation="2" result="effect1_foregroundBlur_12_12"/>
</filter>
</defs>
</svg>
