<svg width="621" height="1014" viewBox="0 0 621 1014" fill="none" xmlns="http://www.w3.org/2000/svg">
<g filter="url(#filter0_f_12_17)">
<path d="M66.8695 146.396C61.8906 137.784 65.8946 126.764 75.2408 123.356L142.498 98.8349C149.441 96.3035 157.214 98.8566 161.304 105.012L553.543 695.283C555.287 697.907 556.217 700.987 556.217 704.138V933.213C556.217 949.578 534.555 955.389 526.365 941.221L66.8695 146.396Z" fill="#F62C2A"/>
</g>
<g filter="url(#filter1_f_12_17)">
<ellipse cx="107.649" cy="100.646" rx="68.6487" ry="68.6461" fill="#F62C2A" fill-opacity="0.3"/>
</g>
<g filter="url(#filter2_f_12_17)">
<ellipse cx="105.918" cy="102.362" rx="25.7433" ry="25.7423" fill="#FCFCFC"/>
</g>
<g filter="url(#filter3_f_12_17)">
<path d="M107.846 121.457L119.859 116.308L566.076 854.254V898.874L107.846 121.457Z" fill="#FCFCFC"/>
</g>
<defs>
<filter id="filter0_f_12_17" x="0.714905" y="33.8655" width="619.502" height="979.375" filterUnits="userSpaceOnUse" color-interpolation-filters="sRGB">
<feFlood flood-opacity="0" result="BackgroundImageFix"/>
<feBlend mode="normal" in="SourceGraphic" in2="BackgroundImageFix" result="shape"/>
<feGaussianBlur stdDeviation="32" result="effect1_foregroundBlur_12_17"/>
</filter>
<filter id="filter1_f_12_17" x="7" y="0" width="201.297" height="201.292" filterUnits="userSpaceOnUse" color-interpolation-filters="sRGB">
<feFlood flood-opacity="0" result="BackgroundImageFix"/>
<feBlend mode="normal" in="SourceGraphic" in2="BackgroundImageFix" result="shape"/>
<feGaussianBlur stdDeviation="16" result="effect1_foregroundBlur_12_17"/>
</filter>
<filter id="filter2_f_12_17" x="74.175" y="70.6201" width="63.4866" height="63.4846" filterUnits="userSpaceOnUse" color-interpolation-filters="sRGB">
<feFlood flood-opacity="0" result="BackgroundImageFix"/>
<feBlend mode="normal" in="SourceGraphic" in2="BackgroundImageFix" result="shape"/>
<feGaussianBlur stdDeviation="3" result="effect1_foregroundBlur_12_17"/>
</filter>
<filter id="filter3_f_12_17" x="103.846" y="112.308" width="466.23" height="790.566" filterUnits="userSpaceOnUse" color-interpolation-filters="sRGB">
<feFlood flood-opacity="0" result="BackgroundImageFix"/>
<feBlend mode="normal" in="SourceGraphic" in2="BackgroundImageFix" result="shape"/>
<feGaussianBlur stdDeviation="2" result="effect1_foregroundBlur_12_17"/>
</filter>
</defs>
</svg>
