<svg width="231" height="286" viewBox="0 0 231 286" fill="none" xmlns="http://www.w3.org/2000/svg">
<g filter="url(#filter0_f_31_15)">
<path d="M65.9977 80.9395C62.7647 74.9198 65.5163 67.4278 71.8769 64.9316V64.9316C77.0092 62.9174 82.8475 64.8643 85.7437 69.5558L164.626 197.334C166.178 199.848 167 202.744 167 205.699V205.699C167 222.25 144.88 227.814 137.049 213.233L65.9977 80.9395Z" fill="#F62C2A"/>
</g>
<g filter="url(#filter1_f_31_15)">
<ellipse cx="69.6787" cy="62.6415" rx="12.6787" ry="13.6415" fill="#F62C2A" fill-opacity="0.3"/>
</g>
<g filter="url(#filter2_f_31_15)">
<ellipse cx="69.3591" cy="62.9826" rx="4.7545" ry="5.11555" fill="#FCFCFC"/>
</g>
<g filter="url(#filter3_f_31_15)">
<path d="M69.6548 66.7849L72.207 65.6038L167 234.896V245.132L69.6548 66.7849Z" fill="#FCFCFC"/>
</g>
<defs>
<filter id="filter0_f_31_15" x="0.636719" y="0.142212" width="230.363" height="285.505" filterUnits="userSpaceOnUse" color-interpolation-filters="sRGB">
<feFlood flood-opacity="0" result="BackgroundImageFix"/>
<feBlend mode="normal" in="SourceGraphic" in2="BackgroundImageFix" result="shape"/>
<feGaussianBlur stdDeviation="32" result="effect1_foregroundBlur_31_15"/>
</filter>
<filter id="filter1_f_31_15" x="49" y="41" width="41.3573" height="43.283" filterUnits="userSpaceOnUse" color-interpolation-filters="sRGB">
<feFlood flood-opacity="0" result="BackgroundImageFix"/>
<feBlend mode="normal" in="SourceGraphic" in2="BackgroundImageFix" result="shape"/>
<feGaussianBlur stdDeviation="4" result="effect1_foregroundBlur_31_15"/>
</filter>
<filter id="filter2_f_31_15" x="58.6046" y="51.8671" width="21.509" height="22.2311" filterUnits="userSpaceOnUse" color-interpolation-filters="sRGB">
<feFlood flood-opacity="0" result="BackgroundImageFix"/>
<feBlend mode="normal" in="SourceGraphic" in2="BackgroundImageFix" result="shape"/>
<feGaussianBlur stdDeviation="3" result="effect1_foregroundBlur_31_15"/>
</filter>
<filter id="filter3_f_31_15" x="65.6548" y="61.6038" width="105.345" height="187.528" filterUnits="userSpaceOnUse" color-interpolation-filters="sRGB">
<feFlood flood-opacity="0" result="BackgroundImageFix"/>
<feBlend mode="normal" in="SourceGraphic" in2="BackgroundImageFix" result="shape"/>
<feGaussianBlur stdDeviation="2" result="effect1_foregroundBlur_31_15"/>
</filter>
</defs>
</svg>
