<svg width="750" height="750" viewBox="0 0 750 750" fill="none" xmlns="http://www.w3.org/2000/svg">
<rect width="750" height="750" fill="#696969"/>
<circle cx="375" cy="375" r="250" fill="#D9D9D9"/>
<rect width="750" height="750" fill="#D9D9D9" fill-opacity="0.16"/>
<mask id="path-4-inside-1_180_54" fill="white">
<path fill-rule="evenodd" clip-rule="evenodd" d="M0 583.272V750H750V583.272C658.382 479.469 524.337 414 375 414C225.663 414 91.6181 479.469 0 583.272Z"/>
</mask>
<path fill-rule="evenodd" clip-rule="evenodd" d="M0 583.272V750H750V583.272C658.382 479.469 524.337 414 375 414C225.663 414 91.6181 479.469 0 583.272Z" fill="#D9D9D9"/>
<path d="M0 750H-8V758H0V750ZM0 583.272L-5.99791 577.978L-8 580.246V583.272H0ZM750 750V758H758V750H750ZM750 583.272H758V580.246L755.998 577.978L750 583.272ZM8 750V583.272H-8V750H8ZM750 742H0V758H750V742ZM742 583.272V750H758V583.272H742ZM375 422C521.946 422 653.838 486.411 744.002 588.566L755.998 577.978C662.926 472.528 526.727 406 375 406V422ZM5.99791 588.566C96.1618 486.411 228.054 422 375 422V406C223.273 406 87.0743 472.528 -5.99791 577.978L5.99791 588.566Z" fill="#696969" mask="url(#path-4-inside-1_180_54)"/>
</svg>
